Land_normalized_Motion_pl12
version=1
nRows=14
nColumns=43
inDegrees=yes
endheader
time		pelvis_tilt		pelvis_list		pelvis_rotation		pelvis_tx		pelvis_ty		pelvis_tz		hip_flexion_r		hip_adduction_r		hip_rotation_r		knee_angle_r		ankle_angle_r		subtalar_angle_r		mtp_angle_r		hip_flexion_l		hip_adduction_l		hip_rotation_l		knee_angle_l		ankle_angle_l		subtalar_angle_l		mtp_angle_l		lumbar_extension		lumbar_bending		lumbar_rotation		neck_flexion		neck_lateral_bending		neck_rotation		arm_flex_r		arm_add_r		arm_rot_r		elbow_flex_r		pro_sup_r		wrist_flex_r		wrist_dev_r		hand_finger_flex_r		arm_flex_l		arm_add_l		arm_rot_l		elbow_flex_l		pro_sup_l		wrist_flex_l		wrist_dev_l		hand_finger_flex_l		
0.651667		-0.588131		7.075342		84.695275		-0.033622		0.650793		0.531436		67.441634		1.122835		-0.582751		-102.704600		19.678170		-8.660927		4.254705		64.210527		-4.359300		-1.800519		-100.497925		22.741360		3.780127		9.012677		-46.711997		1.802856		6.871006		9.513275		-3.557134		-3.834637		-14.064535		-15.241906		-36.464363		78.441352		96.575336		0.369070		-22.791058		-5.474627		-20.018996		-16.356563		-16.693446		66.549797		127.389551		-44.541369		-12.112882		-23.618048		
0.654520		-0.402229		7.509719		84.856838		-0.034120		0.643540		0.529017		67.958501		1.170273		-0.526620		-104.339780		19.743197		-8.353471		4.664631		65.051922		-4.287618		-1.496168		-102.464108		22.333974		3.784466		9.235216		-47.736003		2.036157		7.041475		10.561611		-3.680615		-3.917489		-12.192391		-15.732040		-36.166519		78.961423		96.559352		0.436346		-22.799749		-4.984841		-17.809675		-16.708482		-15.945678		66.859389		127.180688		-44.745857		-12.153734		-23.256568		
0.657374		0.064170		8.018036		85.069008		-0.034621		0.636747		0.526611		68.213084		1.267490		-0.757244		-105.791328		20.038360		-7.842271		5.406587		65.831824		-4.239602		-0.827505		-104.400720		21.938722		3.767132		9.928530		-48.845268		2.552968		7.421529		11.499560		-3.812045		-4.095145		-10.314074		-16.250327		-35.928566		79.490911		96.504737		0.469097		-22.693609		-4.157236		-15.423839		-17.147183		-14.845479		66.973798		126.791561		-45.154608		-12.142777		-22.753576		
0.660227		0.295172		8.473178		85.131229		-0.034818		0.629858		0.524357		68.617016		1.466730		-0.665330		-107.258828		20.095161		-7.524245		5.767243		66.660176		-4.215858		-0.368633		-106.259324		21.263280		4.009846		10.311951		-49.886557		2.729308		7.665946		12.509524		-3.883554		-4.189742		-8.402368		-16.831149		-35.433093		79.984773		96.506165		0.491442		-22.667575		-3.786616		-13.174581		-17.470232		-14.147126		67.280186		126.729823		-45.159583		-12.232797		-22.469175		
0.663081		0.830916		8.999118		85.242983		-0.035157		0.623454		0.522124		68.756962		1.689450		-0.910774		-108.533690		20.403182		-7.008992		6.514321		67.390289		-4.219380		0.459482		-108.056559		20.814594		4.278104		11.320754		-51.012966		3.214425		8.158956		13.419792		-3.970903		-4.390621		-6.482280		-17.468247		-35.006714		80.466030		96.414947		0.415470		-22.536153		-3.105312		-10.732111		-17.872410		-13.032112		67.379100		126.489720		-45.402312		-12.221202		-22.022214		
0.665934		1.058517		9.426431		85.256858		-0.035266		0.616790		0.519988		69.138921		1.929174		-0.814801		-109.871210		20.339054		-6.847903		7.542881		68.198576		-4.171312		1.016623		-109.742635		20.027082		4.635610		13.154792		-51.990288		3.339471		8.464117		14.342357		-3.990759		-4.572107		-4.552121		-18.122679		-34.348637		80.913792		96.206001		0.101778		-22.442718		-2.272441		-8.374061		-18.279311		-12.082940		67.564793		126.401728		-45.600304		-12.334142		-21.305051		
0.668788		1.441828		9.924419		85.317647		-0.035488		0.610385		0.517856		69.375750		2.139397		-0.896013		-111.146140		20.285935		-6.440585		9.196448		68.966088		-4.137915		1.804482		-111.400711		18.962535		5.215344		16.134670		-53.058211		3.629989		8.920729		15.313393		-4.078375		-4.783187		-2.684085		-18.801195		-33.717801		81.428804		95.812774		-0.518986		-22.350884		-0.979646		-5.919059		-18.684841		-10.894474		67.728050		126.155081		-46.130710		-12.377578		-20.234480		
0.671641		1.675126		10.421735		85.453831		-0.035946		0.604138		0.515742		69.602340		2.182971		-0.846823		-112.430987		20.572335		-5.720761		9.468655		69.646923		-3.921695		2.486417		-112.950624		18.421240		5.968166		16.482835		-54.070526		3.863552		9.111323		16.169143		-4.077703		-4.892431		-0.637007		-19.477020		-32.947921		81.777504		95.764517		-0.576393		-22.342376		-0.923222		-3.562045		-19.021524		-9.999343		67.961251		126.240318		-45.897816		-12.266403		-20.128828		
0.674495		1.793107		10.888099		85.600494		-0.036368		0.597787		0.513603		69.920195		2.170258		-0.724986		-113.757250		20.696484		-5.233229		9.728039		70.340052		-3.669179		3.061225		-114.440674		17.838895		6.744766		16.857421		-55.001259		3.995811		9.258449		16.983670		-4.073380		-5.034096		1.366948		-20.172696		-32.145833		82.099429		95.686883		-0.606013		-22.262613		-0.869776		-1.185471		-19.422986		-9.008730		68.193591		126.374656		-45.666614		-12.215168		-20.037377		
0.677348		1.908289		11.364318		85.844133		-0.037000		0.591592		0.511444		70.191531		2.007302		-0.664351		-115.058046		20.950514		-4.609265		10.318459		70.956874		-3.311123		3.709293		-115.848044		17.518925		7.876300		17.846330		-55.914480		4.206250		9.416045		17.775837		-4.048433		-5.293206		3.324554		-20.912166		-31.304967		82.429509		95.372694		-0.814480		-22.063740		-0.799921		1.337273		-19.885327		-7.678502		68.310375		126.402280		-45.671766		-11.881680		-20.032748		
0.680202		1.832524		11.815731		86.042739		-0.037518		0.585286		0.509284		70.581461		1.856397		-0.411621		-116.428063		20.881354		-4.293970		10.608268		71.618794		-2.941608		4.100051		-117.211032		16.844190		8.671336		18.316301		-56.741814		4.223502		9.383621		18.462131		-4.002333		-5.426308		5.365161		-21.630745		-30.377622		82.680531		95.346649		-0.783602		-21.885004		-0.730926		3.721527		-20.314781		-6.642950		68.494185		126.608308		-45.343126		-11.868797		-19.939524		
0.683056		1.736879		12.291275		86.347148		-0.038253		0.579207		0.507124		70.908768		1.518308		-0.211862		-117.771405		21.020723		-3.767302		11.236388		72.159534		-2.462859		4.533405		-118.480014		16.542446		9.868603		19.397162		-57.573974		4.309910		9.310295		19.168349		-3.908437		-5.645777		7.412073		-22.380790		-29.387887		82.902726		95.207365		-0.921318		-21.558851		-0.679710		6.218442		-20.788188		-5.332563		68.615711		126.700672		-45.248723		-11.484568		-19.998045		
0.685909		1.594247		12.745139		86.566422		-0.038794		0.573070		0.504992		71.326976		1.271387		0.038297		-119.129670		20.879873		-3.515843		11.489031		72.748297		-2.084757		4.819841		-119.746836		15.964829		10.716090		19.826920		-58.348263		4.292657		9.193163		19.765883		-3.818845		-5.771993		9.524810		-23.156414		-28.311344		83.029097		95.328107		-0.829001		-21.284797		-0.634384		8.603563		-21.256270		-4.248516		68.783673		126.955355		-44.844310		-11.435813		-19.938047		
0.688763		1.452860		13.135125		86.763807		-0.039267		0.567044		0.502950		71.797396		1.016742		0.237641		-120.427959		20.855664		-3.290219		11.719084		73.321027		-1.742971		5.075668		-120.937507		15.695012		11.520637		20.218178		-59.069915		4.250397		9.081905		20.460506		-3.672078		-5.917460		11.686754		-23.924833		-27.195043		83.097538		95.492488		-0.732482		-20.977602		-0.610624		11.025780		-21.657952		-3.205534		68.912059		127.164345		-44.454579		-11.315481		-19.899006		
